<svg width="32" height="27" viewBox="0 0 32 27" fill="none" xmlns="http://www.w3.org/2000/svg">
<path fill-rule="evenodd" clip-rule="evenodd" d="M21.2114 23.231C24.1919 20.8404 26.102 17.1724 26.102 13.051C26.102 5.8401 20.2622 0 13.051 0C5.8401 0 0 5.8398 0 13.051C0 20.2622 5.8398 26.102 13.051 26.102H30.571C31.3601 26.102 32.0007 25.4614 32.0007 24.6723C32.0007 23.8832 31.3601 23.2426 30.571 23.2426H21.2116L21.2114 23.231ZM21.7192 13.051C21.7192 14.2698 20.7309 15.2698 19.5004 15.2698C18.2816 15.2698 17.2816 14.2815 17.2816 13.051C17.2816 11.8322 18.2699 10.8322 19.5004 10.8322C20.7192 10.8322 21.7192 11.8322 21.7192 13.051ZM13.0512 21.7229C11.8324 21.7229 10.8324 20.7346 10.8324 19.5041C10.8324 18.2853 11.8207 17.2853 13.0512 17.2853C14.2817 17.2853 15.27 18.2736 15.27 19.5041C15.27 20.7307 14.27 21.7229 13.0512 21.7229ZM4.37931 13.051C4.37931 11.8322 5.36759 10.8322 6.59811 10.8322C7.81691 10.8322 8.81691 11.8205 8.81691 13.051C8.81691 14.2698 7.82863 15.2698 6.59811 15.2698C5.37151 15.2698 4.37931 14.2698 4.37931 13.051ZM13.0512 4.3791C14.27 4.3791 15.27 5.36738 15.27 6.5979C15.27 7.8167 14.2817 8.8167 13.0512 8.8167C11.8207 8.8167 10.8324 7.82842 10.8324 6.5979C10.8285 5.3713 11.8207 4.3791 13.0512 4.3791Z" fill="black"/>
</svg>
